<?xml version="1.0" encoding="utf-8"?>
<!-- Generator: Adobe Illustrator 16.0.0, SVG Export Plug-In . SVG Version: 6.00 Build 0)  -->
<!DOCTYPE svg PUBLIC "-//W3C//DTD SVG 1.1//EN" "http://www.w3.org/Graphics/SVG/1.1/DTD/svg11.dtd">
<svg version="1.1" id="Layer_1" xmlns="http://www.w3.org/2000/svg" xmlns:xlink="http://www.w3.org/1999/xlink" x="0px" y="0px"
	 width="265.659px" height="404.979px" viewBox="864.932 -25.897 265.659 404.979"
	 enable-background="new 864.932 -25.897 265.659 404.979" xml:space="preserve">
<g>
	<path fill="#474747" d="M998.447-15.783h-1.361c-208.381,14.785-106.346,260.014,0,369.117v1.383
		c0.217-0.227,0.459-0.461,0.676-0.697c0.217,0.236,0.451,0.469,0.676,0.697v-1.383C1104.775,244.23,1206.816-0.988,998.447-15.783z
		 M998.396,337.688v1.299c-0.213-0.215-0.432-0.434-0.635-0.654c-0.203,0.221-0.432,0.441-0.635,0.654v-1.299
		c-99.818-102.408-195.592-332.588,0-346.465h1.277C1193.986,5.109,1098.207,235.279,998.396,337.688z"/>
	<path fill="#515151" d="M1000.056,59.303c1.285,0,2.327-0.578,2.327-1.301v-7.939c2.072-1.074,6.646-2.574,14.394-0.535
		c11.015,2.9,21.719-2.322,21.719-2.322s-18.26-0.627-17.001-7.133c1.175-6.023-19.034-9.703-20.455-7.428
		c-0.307-0.076-0.63-0.129-0.983-0.129c-1.28,0-2.313,0.584-2.313,1.307v24.18C997.742,58.725,998.775,59.303,1000.056,59.303z"/>
	<path fill="#515151" d="M998.404-8.777h-1.277c-195.592,13.877-99.818,244.057,0,346.465v1.299
		c0.203-0.213,0.432-0.434,0.635-0.654c0.203,0.221,0.422,0.439,0.635,0.654v-1.299C1098.207,235.279,1193.986,5.109,998.404-8.777z
		 M998.818,218.223c-57.136,0-103.465-46.314-103.465-103.463c0-57.137,46.329-103.459,103.465-103.459
		c57.138,0,103.469,46.322,103.469,103.459C1102.287,171.908,1055.956,218.223,998.818,218.223z"/>
	<g>
		<path fill="#515151" d="M934.859,110.396c-1.644,1.188-2.727,3.797-2.408,5.797l9.205,57.822c0.318,2.002,2.237,3.641,4.264,3.641
			h27.822c2.027,0,3.686-1.658,3.686-3.686v-50.768c0-2.027,1.658-3.686,3.686-3.686h35.002c2.027,0,3.686,1.658,3.686,3.686v50.764
			c0,2.027,1.658,3.686,3.686,3.686h28.475c2.026,0,3.938-1.639,4.247-3.643l8.996-58.244c0.31-2.004-0.774-4.623-2.407-5.824
			l-60.166-44.188c-1.633-1.199-4.313-1.209-5.957-0.023L934.859,110.396z"/>
	</g>
</g>
</svg>
